<svg width="28" height="28" viewBox="0 0 28 28" fill="none" xmlns="http://www.w3.org/2000/svg">
<path d="M14 4.375C10.6265 4.375 7.875 7.12646 7.875 10.5C7.875 12.6089 8.95166 14.4819 10.582 15.5859C7.46143 16.9258 5.25 20.0225 5.25 23.625H7C7 19.749 10.124 16.625 14 16.625C17.876 16.625 21 19.749 21 23.625H22.75C22.75 20.0225 20.5386 16.9258 17.418 15.5859C19.0483 14.4819 20.125 12.6089 20.125 10.5C20.125 7.12646 17.3735 4.375 14 4.375ZM14 6.125C16.4268 6.125 18.375 8.07324 18.375 10.5C18.375 12.9268 16.4268 14.875 14 14.875C11.5732 14.875 9.625 12.9268 9.625 10.5C9.625 8.07324 11.5732 6.125 14 6.125Z" fill="#CCA9A9"/>
</svg>
