<svg width="28" height="30" viewBox="0 0 28 30" fill="none" xmlns="http://www.w3.org/2000/svg">
<g filter="url(#filter0_d_1_261)">
<path d="M14 2C8.48603 2 4 6.48604 4 12C4 17.514 8.48603 22 14 22C19.514 22 24 17.514 24 12C24 6.48604 19.514 2 14 2ZM14 3.5C18.7033 3.5 22.5 7.2967 22.5 12C22.5 16.1904 19.4836 19.6532 15.5 20.3604V14.5H17.3125C17.5645 14.5 17.7776 14.3115 17.8086 14.0615L17.9961 12.5615C18.0141 12.4195 17.969 12.2769 17.874 12.1689C17.7795 12.0614 17.6435 12 17.5 12H15.5V10.25C15.5 9.6985 15.9485 9.25 16.5 9.25H17.5C17.776 9.25 18 9.0265 18 8.75V7.0625C18 6.8035 17.8024 6.58745 17.5449 6.56445C17.5154 6.56195 16.81 6.5 15.917 6.5C13.7135 6.5 12.5 7.80809 12.5 10.1836V12H10.5C10.224 12 10 12.2235 10 12.5V14C10 14.2765 10.224 14.5 10.5 14.5H12.5V20.3604C8.51641 19.6532 5.5 16.1904 5.5 12C5.5 7.2967 9.29669 3.5 14 3.5Z" fill="white"/>
</g>
<defs>
<filter id="filter0_d_1_261" x="-2" y="0" width="32" height="32" filterUnits="userSpaceOnUse" color-interpolation-filters="sRGB">
<feFlood flood-opacity="0" result="BackgroundImageFix"/>
<feColorMatrix in="SourceAlpha" type="matrix" values="0 0 0 0 0 0 0 0 0 0 0 0 0 0 0 0 0 0 127 0" result="hardAlpha"/>
<feOffset dy="4"/>
<feGaussianBlur stdDeviation="2"/>
<feComposite in2="hardAlpha" operator="out"/>
<feColorMatrix type="matrix" values="0 0 0 0 0 0 0 0 0 0 0 0 0 0 0 0 0 0 0.25 0"/>
<feBlend mode="normal" in2="BackgroundImageFix" result="effect1_dropShadow_1_261"/>
<feBlend mode="normal" in="SourceGraphic" in2="effect1_dropShadow_1_261" result="shape"/>
</filter>
</defs>
</svg>
