<svg width="24" height="24" viewBox="0 0 24 24" fill="none" xmlns="http://www.w3.org/2000/svg">
<path d="M12 2C6.48603 2 2 6.48604 2 12C2 17.514 6.48603 22 12 22C17.514 22 22 17.514 22 12C22 6.48604 17.514 2 12 2ZM12 3.5C16.7033 3.5 20.5 7.2967 20.5 12C20.5 16.7033 16.7033 20.5 12 20.5C11.2833 20.5 10.5912 20.4024 9.92676 20.2363C10.1667 19.7483 10.328 19.2675 10.4648 18.7646L10.9805 16.7305C11.5205 17.2405 12.28 17.5 13.25 17.5C15.87 17.5 18 14.865 18 11.625C18 8.42 15.42 6 12 6C8.69 6 6 8.525 6 11.625C6 13.115 6.57496 14.4704 7.58496 15.4404C7.70496 15.5554 7.9102 15.4901 7.9502 15.3301L8.23047 14.165C8.26047 14.045 8.23016 13.9204 8.16016 13.8154C7.80016 13.3054 7.5 12.595 7.5 11.625C7.5 9.35 9.52 7.5 12 7.5C12.41 7.5 16 7.62 16 11.75C16 13.795 15.06 16 13 16C12.48 15.965 12.1095 15.7945 11.8945 15.5195C11.5245 15.0295 11.6146 14.1996 11.7246 13.7646L12.1104 12.2549C12.2104 11.8549 12.25 11.5146 12.25 11.2246C12.25 10.2496 11.66 9.75 11 9.75C10.11 9.75 9.5 10.6946 9.5 11.6396C9.5 12.1546 9.58 12.7053 9.75 13.1953L8.61523 17.9053C8.61523 17.9053 8.5 18.21 8.5 19.21C8.5 19.3107 8.51757 19.575 8.52539 19.7549C5.56198 18.4287 3.5 15.4633 3.5 12C3.5 7.2967 7.29669 3.5 12 3.5Z" fill="white"/>
</svg>
