<svg width="28" height="28" viewBox="0 0 28 28" fill="none" xmlns="http://www.w3.org/2000/svg">
<path d="M14 2.625C11.5972 2.625 9.625 4.59717 9.625 7V7.875H5.30469L5.25 8.69531L4.375 24.4453L4.32031 25.375H23.6797L23.625 24.4453L22.75 8.69531L22.6953 7.875H18.375V7C18.375 4.59717 16.4028 2.625 14 2.625ZM14 4.375C15.4492 4.375 16.625 5.55078 16.625 7V7.875H11.375V7C11.375 5.55078 12.5508 4.375 14 4.375ZM6.94531 9.625H9.625V12.25H11.375V9.625H16.625V12.25H18.375V9.625H21.0547L21.8203 23.625H6.17969L6.94531 9.625Z" fill="#CCA9A9"/>
</svg>
